<mxfile host="app.diagrams.net" modified="2021-07-27T17:49:48.930Z" agent="5.0 (Macintosh; Intel Mac OS X 10_14_6) AppleWebKit/537.36 (KHTML, like Gecko) Chrome/91.0.4472.164 Safari/537.36" etag="AvNy5aAI3URx1V0HHJX1" version="14.9.2" type="github">
  <diagram id="DzUIId4ll-ulbjkrfadN" name="Page-1">
    <mxGraphModel dx="571" dy="415" grid="1" gridSize="10" guides="1" tooltips="1" connect="1" arrows="1" fold="1" page="1" pageScale="1" pageWidth="850" pageHeight="1100" math="0" shadow="0">
      <root>
        <mxCell id="0" />
        <mxCell id="1" parent="0" />
        <mxCell id="I_L6hPFMJSKXvp4w5YZE-1" value="&lt;font style=&quot;font-size: 22px&quot;&gt;Phase 1&lt;/font&gt;" style="text;html=1;strokeColor=none;fillColor=none;align=left;verticalAlign=middle;whiteSpace=wrap;rounded=0;" parent="1" vertex="1">
          <mxGeometry x="40" width="150" height="40" as="geometry" />
        </mxCell>
        <mxCell id="I_L6hPFMJSKXvp4w5YZE-7" value="User" style="swimlane;childLayout=stackLayout;horizontal=1;startSize=30;horizontalStack=0;rounded=1;fontSize=14;fontStyle=0;strokeWidth=2;resizeParent=0;resizeLast=1;shadow=0;dashed=0;align=center;" parent="1" vertex="1">
          <mxGeometry x="40" y="40" width="200" height="200" as="geometry" />
        </mxCell>
        <mxCell id="I_L6hPFMJSKXvp4w5YZE-8" value="id: ObjectId&#xa;username: String *&#xa;email: String *&#xa;passwordHash: String *&#xa;firstName: String *&#xa;lastName: String *&#xa;role: String&#xa;organizations: [#Organization]&#xa;&#xa;&#xa;timestamp: true" style="align=left;strokeColor=none;fillColor=none;spacingLeft=4;fontSize=12;verticalAlign=top;resizable=0;rotatable=0;part=1;" parent="I_L6hPFMJSKXvp4w5YZE-7" vertex="1">
          <mxGeometry y="30" width="200" height="170" as="geometry" />
        </mxCell>
        <mxCell id="I_L6hPFMJSKXvp4w5YZE-9" value="Organization" style="swimlane;childLayout=stackLayout;horizontal=1;startSize=30;horizontalStack=0;rounded=1;fontSize=14;fontStyle=0;strokeWidth=2;resizeParent=0;resizeLast=1;shadow=0;dashed=0;align=center;" parent="1" vertex="1">
          <mxGeometry x="260" y="40" width="200" height="200" as="geometry" />
        </mxCell>
        <mxCell id="I_L6hPFMJSKXvp4w5YZE-10" value="id: ObjectId&#xa;name: String *&#xa;admin: #User *&#xa;projects: [#Project] *&#xa;opportunities: [#Opportunity]&#xa;number_of_projects: Number&#xa;number_of_opportunities: Number&#xa;&#xa;&#xa;&#xa;timestamp: true" style="align=left;strokeColor=none;fillColor=none;spacingLeft=4;fontSize=12;verticalAlign=top;resizable=0;rotatable=0;part=1;" parent="I_L6hPFMJSKXvp4w5YZE-9" vertex="1">
          <mxGeometry y="30" width="200" height="170" as="geometry" />
        </mxCell>
        <mxCell id="I_L6hPFMJSKXvp4w5YZE-16" value="Project" style="swimlane;childLayout=stackLayout;horizontal=1;startSize=30;horizontalStack=0;rounded=1;fontSize=14;fontStyle=0;strokeWidth=2;resizeParent=0;resizeLast=1;shadow=0;dashed=0;align=center;" parent="1" vertex="1">
          <mxGeometry x="480" y="40" width="200" height="280" as="geometry" />
        </mxCell>
        <mxCell id="I_L6hPFMJSKXvp4w5YZE-17" value="id: ObjectId&#xa;title: String *&#xa;belongsTo: ObjectId (Org)&#xa;startDate: Date&#xa;goalDate: Date&#xa;oppStartDate: Date&#xa;oppCloseDate: Date&#xa;currentStage: String&#xa;dollarValue: Number *&#xa;contactFullName: String *&#xa;contactPhoneNumber: String *&#xa;contactEmailAddress: String *&#xa;posts: [#Post]&#xa;documents: [#Documents]&#xa;&#xa;timestamp: true" style="align=left;strokeColor=none;fillColor=none;spacingLeft=4;fontSize=12;verticalAlign=top;resizable=0;rotatable=0;part=1;" parent="I_L6hPFMJSKXvp4w5YZE-16" vertex="1">
          <mxGeometry y="30" width="200" height="250" as="geometry" />
        </mxCell>
        <mxCell id="I_L6hPFMJSKXvp4w5YZE-18" value="Post" style="swimlane;childLayout=stackLayout;horizontal=1;startSize=30;horizontalStack=0;rounded=1;fontSize=14;fontStyle=0;strokeWidth=2;resizeParent=0;resizeLast=1;shadow=0;dashed=0;align=center;" parent="1" vertex="1">
          <mxGeometry x="40" y="260" width="200" height="200" as="geometry" />
        </mxCell>
        <mxCell id="I_L6hPFMJSKXvp4w5YZE-19" value="id: ObjectId&#xa;belongsTo: #Project*&#xa;dateCreated: Date *&#xa;author: #User&#xa;body: String&#xa;&#xa;&#xa;timestamp: true" style="align=left;strokeColor=none;fillColor=none;spacingLeft=4;fontSize=12;verticalAlign=top;resizable=0;rotatable=0;part=1;" parent="I_L6hPFMJSKXvp4w5YZE-18" vertex="1">
          <mxGeometry y="30" width="200" height="170" as="geometry" />
        </mxCell>
        <mxCell id="I_L6hPFMJSKXvp4w5YZE-20" value="Comments" style="swimlane;childLayout=stackLayout;horizontal=1;startSize=30;horizontalStack=0;rounded=1;fontSize=14;fontStyle=0;strokeWidth=2;resizeParent=0;resizeLast=1;shadow=0;dashed=0;align=center;" parent="1" vertex="1">
          <mxGeometry x="260" y="260" width="200" height="200" as="geometry" />
        </mxCell>
        <mxCell id="I_L6hPFMJSKXvp4w5YZE-21" value="id: ObjectId&#xa;belongsToPost: #Post*&#xa;dateCreated: Date *&#xa;author: #User&#xa;body: String&#xa;&#xa;&#xa;timestamp: true" style="align=left;strokeColor=none;fillColor=none;spacingLeft=4;fontSize=12;verticalAlign=top;resizable=0;rotatable=0;part=1;" parent="I_L6hPFMJSKXvp4w5YZE-20" vertex="1">
          <mxGeometry y="30" width="200" height="170" as="geometry" />
        </mxCell>
        <mxCell id="B4_hM_h811P-XngdZyrY-1" value="Opportunity" style="swimlane;childLayout=stackLayout;horizontal=1;startSize=30;horizontalStack=0;rounded=1;fontSize=14;fontStyle=0;strokeWidth=2;resizeParent=0;resizeLast=1;shadow=0;dashed=0;align=center;" vertex="1" parent="1">
          <mxGeometry x="480" y="330" width="200" height="280" as="geometry" />
        </mxCell>
        <mxCell id="B4_hM_h811P-XngdZyrY-2" value="id: ObjectId&#xa;title: String *&#xa;openedDate: Date&#xa;closeDate: Date&#xa;currentStage: String&#xa;dollarValue: Number *&#xa;contactFullName: String *&#xa;contactPhoneNumber: String *&#xa;contactEmailAddress: String *&#xa;posts: [#Post]&#xa;documents: [#Documents]&#xa;&#xa;&#xa;timestamp: true" style="align=left;strokeColor=none;fillColor=none;spacingLeft=4;fontSize=12;verticalAlign=top;resizable=0;rotatable=0;part=1;" vertex="1" parent="B4_hM_h811P-XngdZyrY-1">
          <mxGeometry y="30" width="200" height="250" as="geometry" />
        </mxCell>
      </root>
    </mxGraphModel>
  </diagram>
</mxfile>
